HIERARCHY
ROOT root
{
	OFFSET 0.000000 0.000000 0.000000
	CHANNELS 6 Xposition Yposition Zposition Zrotation Yrotation Xrotation
	JOINT lhip
	{
		OFFSET 0.058581 -0.082280 -0.017664
		CHANNELS 3 Zrotation Yrotation Xrotation
		JOINT lknee
		{
			OFFSET 0.043451 -0.386469 0.008037
			CHANNELS 3 Zrotation Yrotation Xrotation
			JOINT lankle
			{
				OFFSET -0.014790 -0.426874 -0.037428
				CHANNELS 3 Zrotation Yrotation Xrotation
				JOINT ltoe
				{
					OFFSET 0.041054 -0.060286 0.122042
					CHANNELS 3 Zrotation Yrotation Xrotation
					End Site
					{
						OFFSET 0.000000 0.000000 0.000000
					}
				}
			}
		}
	}
	JOINT rhip
	{
		OFFSET -0.060310 -0.090513 -0.013543
		CHANNELS 3 Zrotation Yrotation Xrotation
		JOINT rknee
		{
			OFFSET -0.043257 -0.383688 -0.004843
			CHANNELS 3 Zrotation Yrotation Xrotation
			JOINT rankle
			{
				OFFSET 0.019056 -0.420046 -0.034562
				CHANNELS 3 Zrotation Yrotation Xrotation
				JOINT rtoe
				{
					OFFSET -0.034840 -0.062106 0.130323
					CHANNELS 3 Zrotation Yrotation Xrotation
					End Site
					{
						OFFSET 0.000000 0.000000 0.000000
					}
				}
			}
		}
	}
	JOINT lowerback
	{
		OFFSET 0.004439 0.124404 -0.038385
		CHANNELS 3 Zrotation Yrotation Xrotation
		JOINT upperback
		{
			OFFSET 0.004488 0.137956 0.026820
			CHANNELS 3 Zrotation Yrotation Xrotation
			JOINT chest
			{
				OFFSET -0.002265 0.056032 0.002855
				CHANNELS 3 Zrotation Yrotation Xrotation
				JOINT lowerneck
				{
					OFFSET -0.013390 0.211636 -0.033468
					CHANNELS 3 Zrotation Yrotation Xrotation
					JOINT upperneck
					{
						OFFSET 0.010113 0.088937 0.050410
						CHANNELS 3 Zrotation Yrotation Xrotation
						End Site
						{
							OFFSET 0.000000 0.000000 0.000000
						}
					}
				}
				JOINT lclavicle
				{
					OFFSET 0.071702 0.114000 -0.018898
					CHANNELS 3 Zrotation Yrotation Xrotation
					JOINT lshoulder
					{
						OFFSET 0.122921 0.045205 -0.019046
						CHANNELS 3 Zrotation Yrotation Xrotation
						JOINT lelbow
						{
							OFFSET 0.255332 -0.015649 -0.022946
							CHANNELS 3 Zrotation Yrotation Xrotation
							JOINT lwrist
							{
								OFFSET 0.265709 0.012698 -0.007375
								CHANNELS 3 Zrotation Yrotation Xrotation
								End Site
								{
									OFFSET 0.000000 0.000000 0.000000
								}
							}
						}
					}
				}
				JOINT rclavicle
				{
					OFFSET -0.082954 0.112472 -0.023707
					CHANNELS 3 Zrotation Yrotation Xrotation
					JOINT rshoulder
					{
						OFFSET -0.113228 0.046853 -0.008472
						CHANNELS 3 Zrotation Yrotation Xrotation
						JOINT relbow
						{
							OFFSET -0.260127 -0.014369 -0.031269
							CHANNELS 3 Zrotation Yrotation Xrotation
							JOINT rwrist
							{
								OFFSET -0.269108 0.006794 -0.006027
								CHANNELS 3 Zrotation Yrotation Xrotation
								End Site
								{
									OFFSET 0.000000 0.000000 0.000000
								}
							}
						}
					}
				}
			}
		}
	}
}
MOTION
Frames: 11
Frame Time: 0.033333
0.064926 -1.848624 0.969063 169.956217 2.440862 90.320766 12.777447 1.781572 -16.511645 -6.603668 -2.556179 40.279271 -1.040470 5.423710 -8.146985 0.000000 -0.000000 0.000000 -4.137556 -3.133663 -37.127303 4.157767 -11.554750 84.582255 -3.517918 -5.942770 -19.210966 0.000000 -0.000000 0.000000 -7.213948 4.527496 20.744532 5.355032 0.223081 13.270497 3.613556 -0.412187 -1.999468 0.122561 12.159028 -7.243613 -3.346179 3.836952 -15.689675 -23.146722 -5.976751 1.814424 -41.013774 2.440741 9.725802 3.020173 -63.291958 17.533319 14.120251 -0.206617 -2.950183 28.553838 9.413004 1.838413 32.589671 10.410359 -6.616230 -48.874953 40.424575 -50.402869 6.958578 5.009318 -15.384711 
0.091791 -1.798200 1.001552 167.793819 4.082054 89.917768 13.960118 0.303816 -13.596497 -4.848402 -2.359964 40.383853 -2.533681 8.230295 -0.885706 0.000000 -0.000000 0.000000 -3.484925 -1.747208 -39.619191 5.422013 -11.972601 82.537680 -3.995745 -6.047642 -18.401369 0.000000 -0.000000 0.000000 -7.211425 3.394071 18.082058 5.640505 0.399936 14.658421 3.436193 -1.059370 -1.820149 0.506779 13.939242 -5.705277 -3.694758 5.429373 -16.118198 -21.037281 -3.090068 2.378329 -39.629998 4.839788 9.258027 1.630176 -65.701687 14.639428 10.101965 -0.869710 -10.035954 27.763997 6.908821 1.851179 34.340732 10.571531 -5.879330 -48.908242 40.932043 -52.365316 8.675430 4.066082 -16.321238 
0.117320 -1.745557 1.024431 167.170857 5.426251 89.486760 14.691660 0.882561 -11.127466 -5.794148 -4.577676 39.725460 -2.343304 7.829106 -0.482982 0.000000 -0.000000 0.000000 -4.149782 -1.353868 -40.216359 6.277347 -13.352513 79.730855 -3.818160 -6.225475 -18.023441 0.000000 -0.000000 0.000000 -6.488092 1.979780 15.875354 6.043838 0.029363 15.807229 2.808928 -1.637779 -2.010622 0.691275 15.468055 -4.953342 -4.334141 6.566215 -15.782626 -20.170866 -1.143671 3.179891 -39.424743 6.687038 9.332140 -0.855775 -64.438449 16.032028 7.734726 -0.833279 -14.320806 27.509572 4.436236 1.648631 36.441139 9.393874 -5.493099 -48.022131 39.986807 -53.744931 13.129226 4.458627 -23.035861 
0.149061 -1.679104 1.039029 167.258945 5.936079 88.762900 14.678459 1.968258 -7.793860 -8.729456 -8.365173 35.261331 -6.046875 3.092367 -1.423520 0.000000 -0.000000 0.000000 -5.449977 -2.077570 -39.346923 6.308907 -12.857760 75.371741 -2.775291 -5.244182 -17.686409 0.000000 -0.000000 0.000000 -6.234052 0.681973 15.161602 5.382539 -0.881476 14.930578 2.625081 -2.734109 -1.964543 0.893649 17.533354 -4.563279 -4.261106 8.572451 -14.997507 -20.430643 -0.207738 4.515280 -41.951920 8.060949 8.258027 0.851940 -59.749708 13.025693 3.761310 -1.440871 -16.254979 27.217103 1.836434 1.784012 41.283137 7.259827 -4.823391 -45.829179 39.473775 -55.646850 16.622789 6.178424 -33.155907 
0.167910 -1.640083 1.040110 167.025713 6.105289 88.403983 14.790050 2.921300 -6.064650 -8.224264 -8.078310 32.212367 -7.104787 2.439767 2.603923 0.000000 -0.000000 0.000000 -6.091396 -2.106908 -38.874394 6.230823 -11.754384 71.977256 -2.430856 -4.689502 -15.637077 0.000000 -0.000000 0.000000 -6.377394 -0.144951 14.817739 4.815457 -1.367035 14.859342 2.497176 -3.198817 -2.345574 0.996558 18.496673 -4.775763 -3.767493 10.603906 -14.422168 -21.193781 0.767303 4.454931 -43.758003 7.401217 7.445644 1.916082 -56.473934 9.970347 2.571476 -2.179994 -17.874893 27.136349 0.302520 2.273203 44.768571 6.428661 -3.711747 -45.488313 39.653539 -57.680545 16.747099 7.881830 -38.869535 
0.192541 -1.589824 1.032448 167.268769 6.537730 88.202653 15.736509 3.465689 -4.738399 -7.065291 -5.242472 32.131603 -5.678813 5.547723 4.830795 0.000000 -0.000000 0.000000 -7.313387 -1.930049 -38.007464 6.140308 -10.416440 66.067579 -1.174599 -4.055079 -10.947161 0.000000 -0.000000 0.000000 -6.395150 -1.279536 14.311254 4.334435 -1.981465 14.335785 2.374957 -3.879576 -2.302417 1.524355 18.600960 -5.088825 -2.833018 13.580074 -13.465552 -23.047114 1.295566 4.682134 -45.813180 5.743116 7.343700 4.534134 -56.029108 7.561732 6.551749 -1.697549 -16.879886 27.129136 -1.447134 2.798658 49.046894 4.688522 -1.859047 -47.149593 40.930445 -59.247535 14.120344 8.151601 -42.784594 
0.217686 -1.541081 1.016296 167.791495 7.020933 87.755177 17.161102 2.927637 -3.020784 -6.940913 -3.373427 36.455139 -7.238535 7.638453 4.789302 0.000000 -0.000000 0.000000 -8.961570 -1.781387 -36.459265 5.056602 -10.129689 58.488254 1.180644 -3.081073 -5.132075 0.000000 -0.000000 0.000000 -6.497581 -2.363959 13.474619 3.932258 -2.793852 14.970870 2.240840 -4.564278 -1.943417 2.215680 19.097937 -5.599323 -1.782290 16.121176 -12.627453 -24.770152 1.710013 4.340864 -47.710140 3.476889 8.498608 8.176939 -60.797709 5.892332 10.738406 -0.443834 -16.597034 27.318403 -2.618180 3.582024 52.446812 3.456305 0.014839 -48.286420 43.024049 -60.066764 11.852857 8.604276 -47.712400 
0.242488 -1.493053 0.991393 168.659711 7.695916 87.726361 19.092579 3.027081 -0.082539 -7.051471 -4.166508 38.563568 -7.227941 7.052936 1.222525 0.000000 -0.000000 0.000000 -10.520319 -1.473833 -35.309272 4.330746 -9.341955 50.557759 3.572566 -2.135409 -1.247315 0.000000 -0.000000 0.000000 -6.242642 -3.792622 13.255308 3.636384 -3.188363 14.221422 2.396709 -5.169396 -1.465277 2.642059 19.469804 -5.429393 -1.354041 18.477184 -10.605848 -25.682483 2.248354 4.110189 -50.664321 -0.080505 9.477314 12.733142 -68.328279 5.047979 11.361728 -2.271319 -16.573641 26.854579 -4.101488 4.126839 55.564933 2.631904 1.163395 -49.180056 45.042559 -60.484422 11.359707 9.360449 -52.092174 
0.264912 -1.446372 0.959486 169.881000 7.813248 88.325805 20.031260 2.147335 1.678356 -6.521112 -3.886263 41.882380 -7.900597 7.352148 -4.366819 0.000000 -0.000000 0.000000 -12.664055 -1.462436 -34.970811 4.139617 -7.399138 43.141937 6.703104 -1.293073 3.140226 0.000000 -0.000000 0.000000 -5.593689 -4.992353 13.636463 3.526969 -3.802956 12.786077 2.594978 -5.753695 -1.431205 2.207043 18.953715 -5.874376 -0.975361 20.356457 -8.223156 -26.686354 1.665839 3.198458 -53.042062 -4.257239 11.840266 20.506017 -76.377756 0.315102 14.271846 -3.243122 -16.146868 26.565957 -4.867753 4.316105 57.370481 1.532315 2.306929 -50.370232 46.355511 -61.910147 10.042080 9.602519 -54.729281 
0.288983 -1.390347 0.909667 172.645539 6.618153 90.067393 19.364138 1.193914 0.428665 -5.730307 -3.016890 49.387740 -5.423775 8.533660 -11.857534 0.000000 -0.000000 0.000000 -16.458400 -2.263282 -34.906117 3.698492 -3.392192 37.659908 11.750666 1.073896 6.490794 0.000000 -0.000000 0.000000 -4.863675 -5.899547 13.923540 3.979560 -5.353918 11.589478 2.799234 -6.521046 -1.271988 0.977988 19.269769 -8.047358 -1.498002 21.703578 -6.441953 -26.265867 -2.137352 2.312900 -56.542785 -12.274632 14.676239 39.569605 -80.530467 -12.817034 19.263136 -5.428543 -13.568035 26.236862 -4.325431 4.554768 57.676256 1.469291 2.826982 -50.876585 46.332484 -61.578442 11.485360 11.579617 -58.809544 
0.305733 -1.349625 0.861332 175.094126 5.955786 91.800267 19.621447 2.068534 -2.054482 -4.899521 -1.302598 56.928868 -3.632804 12.375686 -17.826451 0.000000 -0.000000 0.000000 -19.155477 -1.875895 -36.812287 6.068641 0.700877 46.410776 8.478366 2.410812 -12.246573 0.000000 -0.000000 0.000000 -3.142282 -6.927396 14.829796 4.868947 -6.103158 10.527235 2.849122 -7.237480 -0.834933 -0.749520 20.675439 -11.614374 -3.456678 21.550008 -4.694523 -24.321667 -7.910876 1.546721 -58.180159 -18.397573 15.202615 45.400573 -78.194762 -15.567184 22.318103 -6.261748 -10.664794 25.706487 -1.375941 4.682607 56.199188 1.787405 1.494569 -49.997177 45.746049 -60.078843 14.264595 14.205748 -61.409241 
